<svg width="24" height="24" viewBox="0 0 24 24" fill="none" xmlns="http://www.w3.org/2000/svg">
<g clip-path="url(#clip0_692_209)">
<rect width="24" height="24" rx="12" fill="white"/>
<path d="M7.5 10.5C7.5 10.5 8.33 17.43 8.5 19C8.67 20.57 10 21 11 21H13C14.5 21 15.875 19.86 16 19C16.125 18.14 17 7 17 7" stroke="#5E81AC" stroke-width="2" stroke-linecap="round" stroke-linejoin="round"/>
<path d="M16.5 6C16.5 3.5 14 3 12 3C10 3 9.1 3.43 8 4" stroke="#5E81AC" stroke-width="2" stroke-linecap="round" stroke-linejoin="round"/>
<mask id="mask0_692_209" style="mask-type:luminance" maskUnits="userSpaceOnUse" x="5" y="5" width="14" height="4">
<path d="M5 6C5 4 7 6 11.5 6C16 6 19 4 19 6V7C19 8.5 17 9 12.5 9C8 9 5 9 5 7V6Z" fill="white"/>
</mask>
<g mask="url(#mask0_692_209)">
<path d="M20 4H4V9H20V4Z" fill="#5E81AC"/>
</g>
<mask id="mask1_692_209" style="mask-type:luminance" maskUnits="userSpaceOnUse" x="9" y="11" width="6" height="9">
<path d="M10.125 18.15C10.04 17.29 9.40002 11.98 9.40002 11.98C9.40002 11.98 11.34 12.31 12.5 11.73C13.66 11.16 14.98 11 14.98 11C14.98 11 14.4 17.96 14.35 18.46C14.3 18.96 13.45 19.3 12.95 19.3H11.23C10.73 19.3 10.21 19 10.125 18.15Z" fill="white"/>
</mask>
<g mask="url(#mask1_692_209)">
<path d="M16 10H8V20H16V10Z" fill="#5E81AC"/>
</g>
</g>
<defs>
<clipPath id="clip0_692_209">
<rect width="24" height="24" fill="white"/>
</clipPath>
</defs>
</svg>
